<mxfile host="app.diagrams.net" modified="2023-05-14T23:12:13.779Z" agent="Mozilla/5.0 (X11; Linux x86_64) AppleWebKit/537.36 (KHTML, like Gecko) Chrome/110.0.0.0 Safari/537.36" etag="17wcfdN8hCUZayiPskaE" version="21.3.0" type="github">
  <diagram name="Page-1" id="xKOBDFa6lJTss_FniSRr">
    <mxGraphModel dx="880" dy="522" grid="1" gridSize="10" guides="1" tooltips="1" connect="1" arrows="1" fold="1" page="1" pageScale="1" pageWidth="850" pageHeight="1100" math="0" shadow="0">
      <root>
        <mxCell id="0" />
        <mxCell id="1" parent="0" />
        <mxCell id="qJdH3iVnR9BuAiatswMZ-1" value="Debut" style="ellipse;whiteSpace=wrap;html=1;fillColor=#d5e8d4;strokeColor=#82b366;" vertex="1" parent="1">
          <mxGeometry x="360" y="40" width="120" height="80" as="geometry" />
        </mxCell>
        <mxCell id="qJdH3iVnR9BuAiatswMZ-2" value="" style="endArrow=classic;html=1;rounded=0;" edge="1" parent="1">
          <mxGeometry width="50" height="50" relative="1" as="geometry">
            <mxPoint x="419.5" y="120" as="sourcePoint" />
            <mxPoint x="420" y="170" as="targetPoint" />
          </mxGeometry>
        </mxCell>
        <mxCell id="qJdH3iVnR9BuAiatswMZ-3" value="L&#39;utilisateur a-t-il inscrit&lt;br&gt;le nom d&#39;une recette, d&#39;un&amp;nbsp;&lt;br&gt;ingrédient ou d&#39;une&amp;nbsp;&lt;br&gt;description ?" style="rhombus;whiteSpace=wrap;html=1;fillColor=#dae8fc;strokeColor=#6c8ebf;" vertex="1" parent="1">
          <mxGeometry x="330" y="170" width="180" height="180" as="geometry" />
        </mxCell>
        <mxCell id="qJdH3iVnR9BuAiatswMZ-5" value="" style="endArrow=none;html=1;rounded=0;" edge="1" parent="1">
          <mxGeometry width="50" height="50" relative="1" as="geometry">
            <mxPoint x="510" y="259.5" as="sourcePoint" />
            <mxPoint x="600" y="259.5" as="targetPoint" />
          </mxGeometry>
        </mxCell>
        <mxCell id="qJdH3iVnR9BuAiatswMZ-7" value="" style="endArrow=none;html=1;rounded=0;" edge="1" parent="1">
          <mxGeometry width="50" height="50" relative="1" as="geometry">
            <mxPoint x="600" y="260" as="sourcePoint" />
            <mxPoint x="600" y="140" as="targetPoint" />
          </mxGeometry>
        </mxCell>
        <mxCell id="qJdH3iVnR9BuAiatswMZ-9" value="" style="endArrow=classic;html=1;rounded=0;" edge="1" parent="1">
          <mxGeometry width="50" height="50" relative="1" as="geometry">
            <mxPoint x="600" y="140" as="sourcePoint" />
            <mxPoint x="420" y="140" as="targetPoint" />
          </mxGeometry>
        </mxCell>
        <mxCell id="qJdH3iVnR9BuAiatswMZ-10" value="NON" style="text;html=1;align=center;verticalAlign=middle;resizable=0;points=[];autosize=1;strokeColor=none;fillColor=none;" vertex="1" parent="1">
          <mxGeometry x="520" y="230" width="50" height="30" as="geometry" />
        </mxCell>
        <mxCell id="qJdH3iVnR9BuAiatswMZ-11" value="" style="endArrow=classic;html=1;rounded=0;" edge="1" parent="1">
          <mxGeometry width="50" height="50" relative="1" as="geometry">
            <mxPoint x="419.5" y="350" as="sourcePoint" />
            <mxPoint x="420" y="410" as="targetPoint" />
            <Array as="points">
              <mxPoint x="419.5" y="400" />
            </Array>
          </mxGeometry>
        </mxCell>
        <mxCell id="qJdH3iVnR9BuAiatswMZ-12" value="OUI" style="text;html=1;align=center;verticalAlign=middle;resizable=0;points=[];autosize=1;strokeColor=none;fillColor=none;" vertex="1" parent="1">
          <mxGeometry x="430" y="358" width="40" height="30" as="geometry" />
        </mxCell>
        <mxCell id="qJdH3iVnR9BuAiatswMZ-13" value="Les recettes sont triées en fonction de ce qu&#39;écrit l&#39;utilisateur dans la barre de recherche" style="rounded=0;whiteSpace=wrap;html=1;fillColor=#f8cecc;strokeColor=#b85450;" vertex="1" parent="1">
          <mxGeometry x="320" y="410" width="200" height="60" as="geometry" />
        </mxCell>
        <mxCell id="qJdH3iVnR9BuAiatswMZ-14" value="" style="endArrow=classic;html=1;rounded=0;" edge="1" parent="1">
          <mxGeometry width="50" height="50" relative="1" as="geometry">
            <mxPoint x="419.5" y="470" as="sourcePoint" />
            <mxPoint x="419.5" y="520" as="targetPoint" />
            <Array as="points">
              <mxPoint x="419.5" y="500" />
            </Array>
          </mxGeometry>
        </mxCell>
        <mxCell id="qJdH3iVnR9BuAiatswMZ-15" value="Fin" style="ellipse;whiteSpace=wrap;html=1;fillColor=#d5e8d4;strokeColor=#82b366;" vertex="1" parent="1">
          <mxGeometry x="360" y="880" width="120" height="80" as="geometry" />
        </mxCell>
        <mxCell id="qJdH3iVnR9BuAiatswMZ-16" value="L&#39;utilisateur a-t-il supprimé&lt;br&gt;&amp;nbsp;ce qu&#39;il a inscrit dans la barre&lt;br&gt;&amp;nbsp;de recherche&amp;nbsp;&amp;nbsp;?" style="rhombus;whiteSpace=wrap;html=1;fillColor=#dae8fc;strokeColor=#6c8ebf;" vertex="1" parent="1">
          <mxGeometry x="330" y="520" width="180" height="180" as="geometry" />
        </mxCell>
        <mxCell id="qJdH3iVnR9BuAiatswMZ-17" value="" style="endArrow=none;html=1;rounded=0;" edge="1" parent="1">
          <mxGeometry width="50" height="50" relative="1" as="geometry">
            <mxPoint x="600" y="610" as="sourcePoint" />
            <mxPoint x="600" y="500" as="targetPoint" />
          </mxGeometry>
        </mxCell>
        <mxCell id="qJdH3iVnR9BuAiatswMZ-18" value="NON" style="text;html=1;align=center;verticalAlign=middle;resizable=0;points=[];autosize=1;strokeColor=none;fillColor=none;" vertex="1" parent="1">
          <mxGeometry x="520" y="570" width="50" height="30" as="geometry" />
        </mxCell>
        <mxCell id="qJdH3iVnR9BuAiatswMZ-19" value="" style="endArrow=classic;html=1;rounded=0;" edge="1" parent="1">
          <mxGeometry width="50" height="50" relative="1" as="geometry">
            <mxPoint x="600" y="500" as="sourcePoint" />
            <mxPoint x="420" y="500" as="targetPoint" />
          </mxGeometry>
        </mxCell>
        <mxCell id="qJdH3iVnR9BuAiatswMZ-20" value="" style="endArrow=none;html=1;rounded=0;" edge="1" parent="1">
          <mxGeometry width="50" height="50" relative="1" as="geometry">
            <mxPoint x="510" y="609.5" as="sourcePoint" />
            <mxPoint x="600" y="610" as="targetPoint" />
          </mxGeometry>
        </mxCell>
        <mxCell id="qJdH3iVnR9BuAiatswMZ-21" value="On revient au point de départ en affichant toutes les recettes" style="rounded=0;whiteSpace=wrap;html=1;fillColor=#f8cecc;strokeColor=#b85450;" vertex="1" parent="1">
          <mxGeometry x="320" y="760" width="200" height="60" as="geometry" />
        </mxCell>
        <mxCell id="qJdH3iVnR9BuAiatswMZ-22" value="" style="endArrow=classic;html=1;rounded=0;" edge="1" parent="1">
          <mxGeometry width="50" height="50" relative="1" as="geometry">
            <mxPoint x="419.5" y="699" as="sourcePoint" />
            <mxPoint x="419.5" y="759" as="targetPoint" />
          </mxGeometry>
        </mxCell>
        <mxCell id="qJdH3iVnR9BuAiatswMZ-23" value="" style="endArrow=classic;html=1;rounded=0;" edge="1" parent="1">
          <mxGeometry width="50" height="50" relative="1" as="geometry">
            <mxPoint x="419.5" y="820" as="sourcePoint" />
            <mxPoint x="419.5" y="880" as="targetPoint" />
          </mxGeometry>
        </mxCell>
      </root>
    </mxGraphModel>
  </diagram>
</mxfile>
